<?xml version="1.0" encoding="UTF-8"?>
<svg version="1.1" xmlns="http://www.w3.org/2000/svg" width="668" height="257">
<path d="M0 0 C220.44 0 440.88 0 668 0 C668 84.81 668 169.62 668 257 C447.56 257 227.12 257 0 257 C0 172.19 0 87.38 0 0 Z " fill="#FEFEFE" transform="translate(0,0)"/>
<path d="M0 0 C26.54545455 0 26.54545455 0 32.375 5.0625 C34.75647027 9.36746549 34.6505753 13.18424721 34 18 C33.21127796 20.54193846 32.23828961 22.62661158 31 25 C31.99 25.33 32.98 25.66 34 26 C37.72313035 31.23996124 37.80292722 36.81653754 37 43 C34.22273074 49.24885584 31.32602753 50.0462328 25 54 C16.75 54 8.5 54 0 54 C0 36.18 0 18.36 0 0 Z " fill="#191919" transform="translate(485,107)"/>
<path d="M0 0 C28.46666667 0 28.46666667 0 35.05859375 5.81640625 C35.74115234 6.68072266 35.74115234 6.68072266 36.4375 7.5625 C36.91058594 8.14128906 37.38367188 8.72007813 37.87109375 9.31640625 C40.81826312 13.71166577 40.66871064 18.92831816 40 24 C37.870493 29.18680749 34.62434339 32.82902168 30 36 C31.37798126 39.87644224 33.19239726 42.87896006 35.625 46.1875 C39 50.78163265 39 50.78163265 39 53 C35.6964392 53.98403939 33.26863673 54.18631991 30 53 C28.39414798 50.69213616 27.06485311 48.52443023 25.75 46.0625 C22.85947622 40.62528287 22.85947622 40.62528287 17.54296875 37.84765625 C13.54868932 37.52593381 13.54868932 37.52593381 8 38 C8 43.28 8 48.56 8 54 C5.36 54 2.72 54 0 54 C0 36.18 0 18.36 0 0 Z " fill="#171717" transform="translate(197,107)"/>
<path d="M0 0 C3.3 0 6.6 0 10 0 C17.0194176 13.32318958 24.01729029 26.65753603 31 40 C38.01941865 26.67680842 45.01688887 13.34225606 52 0 C55.3 0 58.6 0 62 0 C62 17.82 62 35.64 62 54 C59.36 54 56.72 54 54 54 C53.67 41.46 53.34 28.92 53 16 C47.86727898 26.30492169 47.86727898 26.30492169 42.73901367 36.61206055 C42.0904922 37.91202653 41.4418205 39.21191758 40.79296875 40.51171875 C40.4628479 41.17707642 40.13272705 41.84243408 39.79260254 42.5279541 C34.67257954 52.769907 34.67257954 52.769907 31.625 53.8125 C27.39880588 52.5043923 26.0489254 48.69382335 24 45 C21.32450748 39.86751832 18.75057824 34.68942853 16.1875 29.5 C12.6296875 22.3225 12.6296875 22.3225 9 15 C8.67 27.87 8.34 40.74 8 54 C5.36 54 2.72 54 0 54 C0 36.18 0 18.36 0 0 Z " fill="#191919" transform="translate(369,107)"/>
<path d="M0 0 C2.31 0 4.62 0 7 0 C7 17.82 7 35.64 7 54 C0 54 0 54 -3 53 C-4.485 53.495 -4.485 53.495 -6 54 C-11.76718785 54.73603851 -16.60520374 54.85205175 -21.5 51.4375 C-25.7556147 47.68767557 -27.59664646 44.06182009 -28.34375 38.390625 C-28.66422241 32.59007432 -28.01202735 28.39245748 -24.54296875 23.66015625 C-20.75143005 19.58065259 -17.08227915 17.7998418 -11.5 17.5625 C-6.82531522 17.57122143 -4.80962309 18.93873296 0 21 C0 14.07 0 7.14 0 0 Z " fill="#171717" transform="translate(351,107)"/>
<path d="M0 0 C4.075846 2.39755647 6.98931359 4.95054875 8.6875 9.4375 C9.63846114 15.54859451 9.72997197 21.47387744 6.6875 27 C3.72183999 30.91831616 0.42939502 33.15590675 -4.3125 34.4375 C-9.61914144 35.16113292 -13.82011155 35.1560574 -18.6875 32.8125 C-22.99802091 28.91250489 -26.9036437 25.27136559 -27.55078125 19.203125 C-27.73510106 12.95565354 -27.0707176 9.48142362 -23.3125 4.4375 C-16.83655321 -2.07226375 -8.53297009 -3.79603613 0 0 Z " fill="#171717" transform="translate(558.3125,126.5625)"/>
<path d="M0 0 C5.25383712 1.93182327 7.90265092 5.8005995 10.37109375 10.64453125 C11 13 11 13 11 21 C1.76 21 -7.48 21 -17 21 C-14.66151858 26.91731018 -14.66151858 26.91731018 -11 29 C-5.24706062 29.46394672 -2.92589837 29.01027123 2 26 C5.36105951 26.96030272 6.01133714 28.01700571 8 31 C3.43240054 35.35009473 0.28591932 36.40798821 -6.0625 36.5625 C-11.49324675 36.35517563 -14.9740963 35.91995886 -19 32 C-24.15944383 26.28277846 -24.34780644 21.65947403 -24.28125 14.171875 C-23.79526905 8.69108988 -21.35584459 6.19443452 -17.375 2.6875 C-12.02568454 -1.11332941 -6.38541978 -0.65530561 0 0 Z " fill="#1A1A1A" transform="translate(268,125)"/>
<path d="M0 0 C3.65590349 3.47310832 6.87654117 7.23146466 7.5 12.375 C7.5 14.685 7.5 16.995 7.5 19.375 C-1.41 19.375 -10.32 19.375 -19.5 19.375 C-18.19248887 25.03068989 -18.19248887 25.03068989 -15.875 26.75 C-11.18939108 27.98305498 -6.11652144 27.91384048 -1.5 26.375 C-1.5 25.715 -1.5 25.055 -1.5 24.375 C1.66115776 25.74483503 2.4927092 26.3640638 4.5 29.375 C-2.00467276 34.68144357 -6.15519229 34.96266252 -14.5 34.375 C-19.58592596 33.23179186 -22.68316224 30.75674762 -25.5 26.375 C-28.18040934 21.68428365 -28.0177066 16.62602408 -27.5 11.375 C-25.76207426 5.48536276 -23.36593238 2.8217021 -18.5 -0.625 C-12.47662369 -2.6327921 -5.76053591 -2.67453453 0 0 Z " fill="#1B1B1B" transform="translate(467.5,126.625)"/>
<path d="M0 0 C3.77260108 1.47153082 5.74673253 3.6200988 8 7 C8.22705078 9.91088867 8.22705078 9.91088867 8.1953125 13.41796875 C8.18886719 14.67158203 8.18242187 15.92519531 8.17578125 17.21679688 C8.15902344 18.52712891 8.14226562 19.83746094 8.125 21.1875 C8.11496639 22.52277987 8.1058412 23.85806689 8.09765625 25.19335938 C8.07405292 28.46242015 8.04112594 31.73112028 8 35 C5.69 35 3.38 35 1 35 C0.67 34.34 0.34 33.68 0 33 C-0.61875 33.495 -1.2375 33.99 -1.875 34.5 C-6.28099057 36.61487547 -10.19493301 36.84434085 -15 36 C-18.11886578 34.30904867 -20.39018854 32.21962291 -22 29 C-22.54016597 24.49271349 -22.60322525 21.05005877 -20.3125 17.0625 C-15.76048035 13.00259058 -11.65905513 12.76338215 -5.6875 12.875 C-4.43324219 12.89304688 -3.17898438 12.91109375 -1.88671875 12.9296875 C-0.45779297 12.96449219 -0.45779297 12.96449219 1 13 C0.67 11.02 0.34 9.04 0 7 C-8.00938881 6.46073846 -8.00938881 6.46073846 -15 10 C-16.32 9.01 -17.64 8.02 -19 7 C-15.86226765 -1.27220346 -7.56969023 -0.9423701 0 0 Z " fill="#161616" transform="translate(307,125)"/>
<path d="M0 0 C3.526875 -0.12375 3.526875 -0.12375 7.125 -0.25 C7.85348145 -0.28641602 8.58196289 -0.32283203 9.33251953 -0.36035156 C14.40167959 -0.44559374 17.1104256 0.85129691 21 4 C23.88516342 7.4621961 24.53917865 10.48796884 24.3515625 15.0078125 C23.59475903 19.29636551 21.21218781 22.06889922 17.84375 24.65625 C14.23504645 26.36146157 11.08054183 26.33165524 7.1875 26.1875 C4.815625 26.125625 2.44375 26.06375 0 26 C0 17.42 0 8.84 0 0 Z " fill="#F5F5F5" transform="translate(205,113)"/>
<path d="M0 0 C3.74624361 1.66499716 5.81723041 3.5638193 8 7 C8.79893471 11.03462028 8.92775262 15.19603657 7.015625 18.9140625 C3.83867987 22.8950493 1.08246719 24.72837385 -3.875 25.375 C-8.80094062 24.78388713 -11.74139198 22.51032962 -14.875 18.75 C-16.37988878 15.07138298 -16.92618982 11.85790879 -16 8 C-11.84499081 1.37993949 -7.8832199 -0.84896214 0 0 Z " fill="#FACF3C" transform="translate(161,165)"/>
<path d="M0 0 C3.8026029 2.0050088 5.61790841 3.42686262 8 7 C8.66624845 11.07463524 8.94496094 15.24356703 6.94921875 18.953125 C4.55845406 21.85871513 2.60292854 23.79819245 -1.171875 24.2734375 C-8.99068626 24.58145128 -8.99068626 24.58145128 -12.5625 21.6875 C-15.93439789 17.96976642 -16.3439906 15.03739923 -16.2890625 10.06640625 C-15.81603804 6.6849206 -14.1444493 4.57333916 -12 2 C-7.96127401 -0.69248399 -4.74486631 -0.67205444 0 0 Z " fill="#FACF3C" transform="translate(117,121)"/>
<path d="M0 0 C3.75212276 2.01502889 5.63644095 3.45466142 8 7 C8.66100598 11.04257341 8.91928345 15.20172043 7.01953125 18.91796875 C3.83125067 22.89105685 1.08570352 24.72795172 -3.875 25.375 C-8.64595735 24.80248512 -11.66432118 22.33567882 -15 19 C-15.62342775 14.18976271 -16.32944378 8.44637424 -13.94921875 4.06640625 C-9.84113795 -0.01743808 -5.6020391 -0.77054069 0 0 Z " fill="#FACF3C" transform="translate(73,165)"/>
<path d="M0 0 C6.5911746 0.02011549 6.5911746 0.02011549 9.25390625 1.70703125 C12.61037154 5.82496329 13.75199391 9.21676333 13.25 14.4375 C11.11199129 18.33173016 9.01766669 21.08864833 5.25 23.4375 C0.50614318 24.2937083 -3.53389003 24.12156186 -7.75 21.75 C-10.81372224 18.20757117 -11.61871482 15.64094744 -12.125 11 C-11.25452146 2.7304539 -7.55542407 0.25864004 0 0 Z " fill="#FACF3C" transform="translate(156.75,77.5625)"/>
<path d="M0 0 C3.11703656 1.64873191 3.39830507 2.61864404 5 6 C5.75401893 10.34132109 5.49589053 13.79942293 3.8125 17.875 C1.15722613 20.98807971 -1.00195669 22.66391508 -5.11328125 23.35546875 C-9.23653659 23.61187286 -11.75957866 23.10966588 -15.5625 21.375 C-18.64145001 18.40785544 -18.52490143 15.04953236 -18.6875 10.9375 C-18.70103881 6.70887877 -18.70713602 4.79245773 -15.86328125 1.60546875 C-10.78799205 -1.24029368 -5.63556729 -0.93084274 0 0 Z " fill="#FACF3B" transform="translate(76,78)"/>
<path d="M0 0 C2.31 0 4.62 0 7 0 C7 3.63 7 7.26 7 11 C9.97 11 12.94 11 16 11 C16 12.98 16 14.96 16 17 C13.03 17 10.06 17 7 17 C7.1095693 20.45900478 7.24026848 23.91689109 7.375 27.375 C7.4059375 28.35984375 7.436875 29.3446875 7.46875 30.359375 C7.50742187 31.30039063 7.54609375 32.24140625 7.5859375 33.2109375 C7.6173584 34.08024902 7.6487793 34.94956055 7.68115234 35.84521484 C7.81229433 38.20961794 7.81229433 38.20961794 10 40 C11.98821313 40.39764263 13.98944339 40.73775349 16 41 C16 42.98 16 44.96 16 47 C14.463316 47.19132627 12.91952045 47.32587537 11.375 47.4375 C10.51648438 47.51871094 9.65796875 47.59992188 8.7734375 47.68359375 C5.0887059 46.77538526 3.49472181 45.24554343 1.17333984 42.29272461 C-1.1349586 37.78227294 -0.61435501 33.00610152 -0.375 28.0625 C-0.33439453 26.46438477 -0.33439453 26.46438477 -0.29296875 24.83398438 C-0.22265164 22.22053177 -0.12430438 19.61134825 0 17 C-1.65 17 -3.3 17 -5 17 C-5 15.02 -5 13.04 -5 11 C-3.35 11 -1.7 11 0 11 C0 7.37 0 3.74 0 0 Z " fill="#161616" transform="translate(578,114)"/>
<path d="M0 0 C3.0220794 1.74450506 5.41651082 3.83302164 7 7 C7.51512617 11.09157355 7.94367269 15.23589546 5.953125 18.95703125 C4.18601378 21.09315687 2.49101659 22.75449171 0 24 C-7.01971231 24.57538625 -7.01971231 24.57538625 -10.875 22.3125 C-14.09217178 18.81146012 -14.86223635 16.26283344 -15.375 11.5625 C-14.92715888 7.30800938 -13.6792268 5.2916215 -11 2 C-7.3112362 -0.45917586 -4.2815571 -0.81591937 0 0 Z " fill="#F9F9F9" transform="translate(345,131)"/>
<path d="M0 0 C3.0220794 1.74450506 5.41651082 3.83302164 7 7 C7.43540712 11.26196588 7.47065428 14.91749516 5.75 18.875 C2.58911245 22.71322059 1.17053337 23.86994074 -3.9375 24.4375 C-7.02759082 24.3109041 -8.09298311 23.94542296 -10.875 22.3125 C-14.09217178 18.81146012 -14.86223635 16.26283344 -15.375 11.5625 C-14.92715888 7.30800938 -13.6792268 5.2916215 -11 2 C-7.3112362 -0.45917586 -4.2815571 -0.81591937 0 0 Z " fill="#F8F8F8" transform="translate(553,131)"/>
<path d="M0 0 C2.536875 -0.12375 5.07375 -0.2475 7.6875 -0.375 C8.47729248 -0.42962402 9.26708496 -0.48424805 10.08081055 -0.54052734 C13.07175808 -0.61086699 15.17271364 -0.62364856 17.61767578 1.21948242 C20.02984108 3.94745489 21.68166531 6.37620816 21.5 10.0625 C21.0059736 13.95295788 20.40189937 15.95143542 18 19 C14.81453711 20.59273144 11.36800652 20.10141833 7.875 20.0625 C5.27625 20.041875 2.6775 20.02125 0 20 C0 13.4 0 6.8 0 0 Z " fill="#FAFAFA" transform="translate(493,134)"/>
<path d="M0 0 C3.1769042 1.8826099 5.47719886 3.27127091 6.5859375 6.9375 C6.7656303 9.19649521 6.656625 10.82876001 6 13 C3.11756811 16.29420787 1.25851556 17.76884408 -3.0625 18.5625 C-6.67781108 17.87020639 -8.38108416 16.54408967 -11 14 C-12.42662219 11.14675563 -12.31033868 9.16545451 -12 6 C-8.57142548 0.85713823 -6.21724352 -0.71737425 0 0 Z " fill="#FAD040" transform="translate(116,80)"/>
<path d="M0 0 C3.96287721 0.38104589 5.4323945 1.57539752 8.25 4.3125 C9.6399408 7.0923816 9.43488204 9.2311326 9.25 12.3125 C8.39986429 14.86290714 7.71852322 15.96544576 5.5625 17.5625 C2.18066036 18.65931286 -0.2143367 18.80873345 -3.75 18.3125 C-6.97341676 15.43199992 -8.50697586 13.50331827 -9.375 9.25 C-8.54630875 5.35515113 -6.73053881 3.85686239 -3.75 1.3125 C-2.75 0.3125 -2.75 0.3125 0 0 Z " fill="#FAD040" transform="translate(112.75,167.6875)"/>
<path d="M0 0 C3.59649806 2.65828117 4.83329091 4.06642907 5.625 8.5 C5 12 5 12 3 14.9375 C-0.33588599 17.23092162 -2.09984094 17.75815509 -6.0625 17.48046875 C-9.5685303 16.61102978 -11.01216563 14.91963173 -13 12 C-13.625 8.5 -13.625 8.5 -13 5 C-8.80917048 -0.07310942 -6.43484496 -1.76642803 0 0 Z " fill="#FAD042" transform="translate(73,125)"/>
<path d="M0 0 C3.59649806 2.65828117 4.83329091 4.06642907 5.625 8.5 C5 12 5 12 3 14.9375 C-1.15080314 17.79117716 -3.0301078 17.7099846 -8 17 C-10.67752485 15.3522924 -11.63064823 14.09209565 -12.6328125 11.12890625 C-13.08720111 8.94371011 -13.27283083 7.21785058 -13 5 C-8.9423785 -0.15427596 -6.36113844 -1.74619487 0 0 Z " fill="#FAD040" transform="translate(95,147)"/>
<path d="M0 0 C3.59649806 2.65828117 4.83329091 4.06642907 5.625 8.5 C4.82883761 12.95850936 3.69186542 14.40783917 0 17 C-4.09499984 17.65812497 -6.19879854 17.41801815 -9.875 15.5 C-12.34458411 12.59460694 -13.00432563 10.72099899 -13.27734375 6.96875 C-12.79312151 3.53145409 -10.63660062 2.02343769 -8 0 C-4.99054157 -1.50472922 -3.20590237 -0.88005163 0 0 Z " fill="#F9D73C" transform="translate(139,147)"/>
<path d="M0 0 C3.2476789 2.47106004 4.76899207 3.91426272 5.625 7.9375 C4.74931432 12.22835983 3.28826203 14.12277073 0 17 C-2.87512628 17.86949383 -5.12487372 17.86949383 -8 17 C-11.28826203 14.12277073 -12.74931432 12.22835983 -13.625 7.9375 C-12.79188716 4.02186963 -11.03093154 2.52577629 -8 0 C-4.99054157 -1.50472922 -3.20590237 -0.88005163 0 0 Z " fill="#FAD041" transform="translate(95,103)"/>
<path d="M0 0 C3.2476789 2.47106004 4.76899207 3.91426272 5.625 7.9375 C4.75697586 12.19081827 3.22341676 14.11949992 0 17 C-3.5 17.6875 -3.5 17.6875 -7 17 C-9.875 14.5625 -9.875 14.5625 -12 12 C-12.33 11.67 -12.66 11.34 -13 11 C-13.375 8.25 -13.375 8.25 -13 5 C-8.7485761 -0.03458094 -6.46641655 -1.77509474 0 0 Z " fill="#F9D53D" transform="translate(139,103)"/>
<path d="M0 0 C2.875 1.5625 2.875 1.5625 5 4 C5.79190864 8.98902441 5.80380719 10.83082591 2.9375 15 C-0.76272533 17.51930235 -2.6031656 17.7066341 -7 17 C-9.9375 15.5625 -9.9375 15.5625 -12 13 C-12.65251312 9.88052937 -12.63689595 7.12136395 -12 4 C-8.39563531 -0.80581958 -5.7221418 -1.45858516 0 0 Z " fill="#F9E03D" transform="translate(161,125)"/>
<path d="M0 0 C2.62527189 -0.05382106 5.24944713 -0.09358313 7.875 -0.125 C8.62136719 -0.14175781 9.36773437 -0.15851563 10.13671875 -0.17578125 C12.09194461 -0.1933959 14.04742021 -0.10320189 16 0 C18.57449581 2.57449581 18.2763761 4.41337147 18.36328125 7.9296875 C17.85655357 10.81749043 17.19923028 12.02857844 15 14 C12.28770497 14.29642569 10.00260268 14.38061189 7.3125 14.25 C6.2596582 14.22292969 6.2596582 14.22292969 5.18554688 14.1953125 C3.45644564 14.14826213 1.72804795 14.07651873 0 14 C0 9.38 0 4.76 0 0 Z " fill="#F8F8F8" transform="translate(493,114)"/>
<path d="M0 0 C1.61648438 0.04060547 1.61648438 0.04060547 3.265625 0.08203125 C4.08546875 0.11683594 4.9053125 0.15164062 5.75 0.1875 C6.22633136 6.37980769 6.22633136 6.37980769 4.3125 9.625 C0.63159776 11.86945258 -3.03774056 12.04856961 -7.25 11.1875 C-9.57910918 9.36268455 -10.17017849 8.64362292 -10.6875 5.6875 C-10.25 3.1875 -10.25 3.1875 -8.61328125 1.54296875 C-5.56677883 -0.20436404 -3.48749377 -0.11372262 0 0 Z " fill="#F3F3F3" transform="translate(302.25,143.8125)"/>
<path d="M0 0 C3.4203866 1.17013226 3.91540482 1.87310723 6 5 C6 6.32 6 7.64 6 9 C-0.6 9 -7.2 9 -14 9 C-13 4 -13 4 -10.9375 1.6875 C-6.88453932 -0.64079656 -4.64634566 -0.44250911 0 0 Z " fill="#E9E9E9" transform="translate(265,131)"/>
<path d="M0 0 C3.0625 2.3125 3.0625 2.3125 5 5 C5 5.99 5 6.98 5 8 C-1.27 8 -7.54 8 -14 8 C-13 3 -13 3 -11.5 1.1875 C-7.68428152 -0.62496628 -4.13825937 -0.80261614 0 0 Z " fill="#F7F7F7" transform="translate(462,131)"/>
<path d="M0 0 C3.0625 0.3125 3.0625 0.3125 5 1.4375 C6.0625 3.3125 6.0625 3.3125 5.9375 6.375 C5.0625 9.3125 5.0625 9.3125 2.0625 11.3125 C-1.25990324 10.9883631 -2.54526303 10.70473697 -4.9375 8.3125 C-5.1875 5.3125 -5.1875 5.3125 -4.9375 2.3125 C-2.9375 0.3125 -2.9375 0.3125 0 0 Z " fill="#FABA45" transform="translate(90.9375,171.6875)"/>
<path d="M0 0 C3.0625 0.3125 3.0625 0.3125 5 1.4375 C6.0625 3.3125 6.0625 3.3125 5.9375 6.375 C5.0625 9.3125 5.0625 9.3125 2.0625 11.3125 C-1.25990324 10.9883631 -2.54526303 10.70473697 -4.9375 8.3125 C-5.1875 5.3125 -5.1875 5.3125 -4.9375 2.3125 C-2.9375 0.3125 -2.9375 0.3125 0 0 Z " fill="#FABC46" transform="translate(134.9375,171.6875)"/>
<path d="M0 0 C3.0625 0.3125 3.0625 0.3125 5 1.4375 C6.0625 3.3125 6.0625 3.3125 5.9375 6.375 C5.0625 9.3125 5.0625 9.3125 2.0625 11.3125 C-1.25990324 10.9883631 -2.54526303 10.70473697 -4.9375 8.3125 C-5.1875 5.3125 -5.1875 5.3125 -4.9375 2.3125 C-2.9375 0.3125 -2.9375 0.3125 0 0 Z " fill="#FAC240" transform="translate(112.9375,149.6875)"/>
<path d="M0 0 C3.0625 0.3125 3.0625 0.3125 5 1.4375 C6.0625 3.3125 6.0625 3.3125 5.9375 6.375 C5.0625 9.3125 5.0625 9.3125 2.0625 11.3125 C-1.25990324 10.9883631 -2.54526303 10.70473697 -4.9375 8.3125 C-5.1875 5.3125 -5.1875 5.3125 -4.9375 2.3125 C-2.9375 0.3125 -2.9375 0.3125 0 0 Z " fill="#F9D438" transform="translate(156.9375,149.6875)"/>
<path d="M0 0 C3.0625 0.3125 3.0625 0.3125 5 1.4375 C6.0625 3.3125 6.0625 3.3125 5.9375 6.375 C5.0625 9.3125 5.0625 9.3125 2.0625 11.3125 C-1.25990324 10.9883631 -2.54526303 10.70473697 -4.9375 8.3125 C-5.1875 5.3125 -5.1875 5.3125 -4.9375 2.3125 C-2.9375 0.3125 -2.9375 0.3125 0 0 Z " fill="#FACA50" transform="translate(134.9375,127.6875)"/>
<path d="M0 0 C3.0625 0.3125 3.0625 0.3125 5 1.5 C6.0625 3.3125 6.0625 3.3125 5.9375 5.8125 C4.99624198 8.50180863 4.46223442 9.76981359 2.0625 11.3125 C-1.27942692 11.06796876 -2.54293557 10.70706443 -4.9375 8.3125 C-5.1875 5.3125 -5.1875 5.3125 -4.9375 2.3125 C-2.9375 0.3125 -2.9375 0.3125 0 0 Z " fill="#FACA3A" transform="translate(90.9375,127.6875)"/>
<path d="M0 0 C3.0625 0.3125 3.0625 0.3125 5 1.4375 C6.60193488 4.26444391 5.85834319 6.26176777 5.0625 9.3125 C4.0625 10.3125 4.0625 10.3125 0.625 10.5 C-2.9375 10.3125 -2.9375 10.3125 -4.9375 8.3125 C-5.1875 5.3125 -5.1875 5.3125 -4.9375 2.3125 C-2.9375 0.3125 -2.9375 0.3125 0 0 Z " fill="#F9D238" transform="translate(156.9375,105.6875)"/>
<path d="M0 0 C3 0.25 3 0.25 5 2.25 C5.33661952 5.4142235 5.49943411 7.43513382 3.8125 10.1875 C2 11.25 2 11.25 -0.5625 11.0625 C-3 10.25 -3 10.25 -5 8.25 C-5.25 5.25 -5.25 5.25 -5 2.25 C-3 0.25 -3 0.25 0 0 Z " fill="#FAC83A" transform="translate(69,149.75)"/>
<path d="M0 0 C3.0625 0.3125 3.0625 0.3125 5 1.4375 C6.0625 3.3125 6.0625 3.3125 5.875 6.4375 C5.606875 7.38625 5.33875 8.335 5.0625 9.3125 C2.29999964 10.69375018 0.11518901 10.50329306 -2.9375 10.3125 C-4.9375 8.3125 -4.9375 8.3125 -5.1875 5.3125 C-4.84687504 1.2250005 -4.07761768 0.43378911 0 0 Z " fill="#FAC241" transform="translate(134.9375,83.6875)"/>
<path d="M0 0 C3 0.25 3 0.25 5 2.25 C5.33661952 5.4142235 5.49943411 7.43513382 3.8125 10.1875 C2 11.25 2 11.25 -0.5625 11.0625 C-3 10.25 -3 10.25 -5 8.25 C-5.25 5.25 -5.25 5.25 -5 2.25 C-3 0.25 -3 0.25 0 0 Z " fill="#FABA42" transform="translate(69,105.75)"/>
<path d="M0 0 C3.0625 0.3125 3.0625 0.3125 5 1.5 C6.0625 3.3125 6.0625 3.3125 5.875 5.875 C5.0625 8.3125 5.0625 8.3125 3.0625 10.3125 C0.0625 10.5625 0.0625 10.5625 -2.9375 10.3125 C-4.9375 8.3125 -4.9375 8.3125 -5.1875 5.3125 C-4.84687504 1.2250005 -4.07761768 0.43378911 0 0 Z " fill="#F9DB3C" transform="translate(112.9375,105.6875)"/>
<path d="M0 0 C3.0625 0.3125 3.0625 0.3125 5 1.5 C6.0625 3.3125 6.0625 3.3125 5.875 5.875 C5.0625 8.3125 5.0625 8.3125 3.0625 10.3125 C0.0625 10.5625 0.0625 10.5625 -2.9375 10.3125 C-4.9375 8.3125 -4.9375 8.3125 -5.1875 5.3125 C-4.84687504 1.2250005 -4.07761768 0.43378911 0 0 Z " fill="#FACD3A" transform="translate(90.9375,83.6875)"/>
<path d="M0 0 C-0.66 5.28 -1.32 10.56 -2 16 C-6 15 -6 15 -8 13 C-8.7182079 8.67405008 -8.74976887 5.09787584 -6.25 1.4375 C-4 0 -4 0 0 0 Z " fill="#FABD42" transform="translate(157,125)"/>
<path d="M0 0 C-1.66666667 5 -3.33333333 10 -5 15 C-8 13 -8 13 -9 9.1875 C-9.33465073 5.58508329 -9.09400096 5.12891561 -6.8125 2 C-4 0 -4 0 0 0 Z " fill="#FABD48" transform="translate(135,147)"/>
<path d="M0 0 C2.9375 0.375 2.9375 0.375 6 1 C7 3 7 3 6.2578125 5.2421875 C5.88398438 6.11101562 5.51015625 6.97984375 5.125 7.875 C3.83243369 10.90303996 2.70393056 13.7798921 2 17 C1.34 17 0.68 17 0 17 C-0.05423638 15.08364783 -0.09289963 13.16685075 -0.125 11.25 C-0.14820313 10.18265625 -0.17140625 9.1153125 -0.1953125 8.015625 C-0.00487687 5.07529894 0.47329896 3.47638122 2 1 C1.34 0.67 0.68 0.34 0 0 Z " fill="#FAD03E" transform="translate(155,124)"/>
<path d="M0 0 C-1.31061591 4.23429756 -2.94356259 8.07407404 -5 12 C-5.99 11.67 -6.98 11.34 -8 11 C-8.3125 8.3125 -8.3125 8.3125 -8 5 C-3.97826087 0 -3.97826087 0 0 0 Z " fill="#FBBD4D" transform="translate(134,103)"/>
<path d="M0 0 C4 2 4 2 5 4.375 C5 7 5 7 3.3125 9.375 C1 11 1 11 -1.25 10.75 C-2.11625 10.37875 -2.11625 10.37875 -3 10 C-2.01 10 -1.02 10 0 10 C0 6.7 0 3.4 0 0 Z " fill="#F9E44A" transform="translate(92,172)"/>
<path d="M0 0 C4 2 4 2 5 4.375 C5 7 5 7 3.3125 9.375 C1 11 1 11 -1.25 10.75 C-2.11625 10.37875 -2.11625 10.37875 -3 10 C-2.01 10 -1.02 10 0 10 C0 6.7 0 3.4 0 0 Z " fill="#F9E449" transform="translate(114,150)"/>
<path d="M0 0 C4 2 4 2 5 4.375 C5 7 5 7 3.3125 9.375 C1 11 1 11 -1.25 10.75 C-2.11625 10.37875 -2.11625 10.37875 -3 10 C-2.01 10 -1.02 10 0 10 C0 6.7 0 3.4 0 0 Z " fill="#F9E448" transform="translate(92,128)"/>
<path d="M0 0 C1.32 0.99 2.64 1.98 4 3 C3.6875 5.875 3.6875 5.875 3 9 C0 11 0 11 -2.1875 10.625 C-2.785625 10.41875 -3.38375 10.2125 -4 10 C-3.01 10 -2.02 10 -1 10 C-1.020625 8.906875 -1.04125 7.81375 -1.0625 6.6875 C-1 3 -1 3 0 0 Z " fill="#F9E448" transform="translate(137,172)"/>
<path d="M0 0 C1.32 0.66 2.64 1.32 4 2 C4.36253776 7.43806647 4.36253776 7.43806647 2.75 9.9375 C1 11 1 11 -1.1875 10.6875 C-1.785625 10.460625 -2.38375 10.23375 -3 10 C-2.01 10 -1.02 10 0 10 C0 6.7 0 3.4 0 0 Z " fill="#F9E242" transform="translate(70,150)"/>
<path d="M0 0 C4 2 4 2 4.9375 4.4375 C5 7 5 7 3.6875 8.8125 C2 10 2 10 0 10 C0 6.7 0 3.4 0 0 Z " fill="#F9E33E" transform="translate(136,84)"/>
<path d="M0 0 C1.32 0.66 2.64 1.32 4 2 C4.36253776 7.43806647 4.36253776 7.43806647 2.75 9.9375 C1 11 1 11 -1.1875 10.6875 C-1.785625 10.460625 -2.38375 10.23375 -3 10 C-2.01 10 -1.02 10 0 10 C0 6.7 0 3.4 0 0 Z " fill="#F9E341" transform="translate(70,106)"/>
<path d="M0 0 C0.66 0 1.32 0 2 0 C2 3.3 2 6.6 2 10 C0.68 9.34 -0.64 8.68 -2 8 C-2.125 5.125 -2.125 5.125 -2 2 C-1.34 1.34 -0.68 0.68 0 0 Z " fill="#FBBC47" transform="translate(154,150)"/>
<path d="M0 0 C0.66 0 1.32 0 2 0 C2 3.3 2 6.6 2 10 C0.68 9.34 -0.64 8.68 -2 8 C-2.125 5.125 -2.125 5.125 -2 2 C-1.34 1.34 -0.68 0.68 0 0 Z " fill="#FABC47" transform="translate(154,106)"/>
<path d="M0 0 C0.66 0 1.32 0 2 0 C2 3.3 2 6.6 2 10 C0.68 9.34 -0.64 8.68 -2 8 C-2.125 5.125 -2.125 5.125 -2 2 C-1.34 1.34 -0.68 0.68 0 0 Z " fill="#FABB44" transform="translate(110,106)"/>
<path d="M0 0 C1.32 0.99 2.64 1.98 4 3 C3.67 4.98 3.34 6.96 3 9 C2.01 9.33 1.02 9.66 0 10 C0 6.7 0 3.4 0 0 Z " fill="#F9E844" transform="translate(137,128)"/>
<path d="M0 0 C1.32 0.99 2.64 1.98 4 3 C3.6875 5.375 3.6875 5.375 3 8 C2.01 8.66 1.02 9.32 0 10 C0 6.7 0 3.4 0 0 Z " fill="#F9E843" transform="translate(93,84)"/>
<path d="M0 0 C0.66 0 1.32 0 2 0 C2 3.3 2 6.6 2 10 C1.01 10 0.02 10 -1 10 C-1.02689216 8.52093108 -1.04634621 7.04172517 -1.0625 5.5625 C-1.07410156 4.73878906 -1.08570312 3.91507813 -1.09765625 3.06640625 C-1 1 -1 1 0 0 Z " fill="#FACA39" transform="translate(90,172)"/>
<path d="M0 0 C0.66 0.33 1.32 0.66 2 1 C1.6875 3.875 1.6875 3.875 1 7 C-2 9 -2 9 -4.1875 8.625 C-4.785625 8.41875 -5.38375 8.2125 -6 8 C-5.01 7.67 -4.02 7.34 -3 7 C-1.28432339 3.49705129 -1.28432339 3.49705129 0 0 Z " fill="#FAE751" transform="translate(161,152)"/>
<path d="M0 0 C0.66 0.33 1.32 0.66 2 1 C1.67 3.64 1.34 6.28 1 9 C0.01 8.67 -0.98 8.34 -2 8 C-2.125 5.125 -2.125 5.125 -2 2 C-1.34 1.34 -0.68 0.68 0 0 Z " fill="#FAB945" transform="translate(88,128)"/>
<path d="M0 0 C0.99 0 1.98 0 3 0 C3.3367697 4.93928888 3.16130459 5.78492722 0 10 C0 6.7 0 3.4 0 0 Z " fill="#F9CF38" transform="translate(134,128)"/>
<path d="M0 0 C1.32 0.99 2.64 1.98 4 3 C3.625 5.9375 3.625 5.9375 3 9 C2.01 9.495 2.01 9.495 1 10 C0.67 6.7 0.34 3.4 0 0 Z " fill="#F9E945" transform="translate(159,106)"/>
<path d="M0 0 C0.66 0 1.32 0 2 0 C2 3.3 2 6.6 2 10 C1.01 9.67 0.02 9.34 -1 9 C-1.09765625 2.84765625 -1.09765625 2.84765625 -1 1 C-0.67 0.67 -0.34 0.34 0 0 Z " fill="#FACC39" transform="translate(68,106)"/>
<path d="M0 0 C0.66 0.33 1.32 0.66 2 1 C1.67 3.64 1.34 6.28 1 9 C0.01 8.67 -0.98 8.34 -2 8 C-2.125 5.125 -2.125 5.125 -2 2 C-1.34 1.34 -0.68 0.68 0 0 Z " fill="#FAB844" transform="translate(88,84)"/>
<path d="M0 0 C0.99 0 1.98 0 3 0 C2.67 3.3 2.34 6.6 2 10 C1.34 10 0.68 10 0 10 C0 6.7 0 3.4 0 0 Z " fill="#F9CE38" transform="translate(134,172)"/>
<path d="M0 0 C0.66 0.33 1.32 0.66 2 1 C1.34 3.64 0.68 6.28 0 9 C-0.66 8.67 -1.32 8.34 -2 8 C-2.125 5.125 -2.125 5.125 -2 2 C-1.34 1.34 -0.68 0.68 0 0 Z " fill="#FBB846" transform="translate(66,150)"/>
<path d="M0 0 C0.33 0 0.66 0 1 0 C1 2.31 1 4.62 1 7 C0.01 6.67 -0.98 6.34 -2 6 C-1.125 1.125 -1.125 1.125 0 0 Z " fill="#FAB641" transform="translate(132,130)"/>
</svg>
